# xmcd
#
# Track frame offsets:
#	150
#	10369
#	19497
#	30746
#	42785
#	51252
#	63375
#	73737
#	84657
#	94445
#	106682
#	117984
#	126763
#	138100
#	148395
#	156717
#	165374
#	177097
#	187126
#	197889
#	207685
#	216683
#	225111
#	235246
#	245457
#	254729
#
# Disc length: 3537 seconds
#
# Revision: 0
# Processed by: cddbd v1.4PL0 Copyright (c) Steve Scherf et al.
# Submitted via: EasyCDDAExtractor 4.6.0.1
#
DISCID=900dcf1a
DTITLE=Various Artist - Explosive DooWops  Vol 01
DYEAR=1900
DGENRE=Blues
TTITLE0=Four Kings - One Night
TTITLE1=Karl Hammel Jr. and group - Sittin' Alphabetic'ly
TTITLE2=Inspirations - The Genie
TTITLE3=Coronets - I'm All Alone
TTITLE4=Contenders - (I Love You) Hetta Hetta
TTITLE5=Jay Fanning and group - Church Bells
TTITLE6=Visuals - My Juanita
TTITLE7=Glowtones - The Girl I Love
TTITLE8=Up Starts (Don Dell and the) - A Special Love
TTITLE9=Viscounts - Raindrop
TTITLE10=Sentimentals - You're Mine
TTITLE11=Unique Teens - At The Ball
TTITLE12=Deans - I Don't Want To Wait
TTITLE13=Joey Dee and group - The Girl I Walk To School
TTITLE14=Caslons - Anniversary Of Love
TTITLE15=Sensations - Don't Take Your Love
TTITLE16=Belvederes - Let's Get Married
TTITLE17=Castaleers - You're My Dream
TTITLE18=Fabulaires - Lonely Days, Lonely Nights
TTITLE19=Versatiles - Passing By
TTITLE20=Standards - Hello Love
TTITLE21=Shallows - Wrecking My Life
TTITLE22=Juveniles - Beat In My Heart
TTITLE23=Royal Lancers - Oh Little Girl
TTITLE24=Mandarins - Let The Bells Ring
TTITLE25=Creators - There's Going To Be An Angel
EXTD=
EXTT0=
EXTT1=
EXTT2=
EXTT3=
EXTT4=
EXTT5=
EXTT6=
EXTT7=
EXTT8=
EXTT9=
EXTT10=
EXTT11=
EXTT12=
EXTT13=
EXTT14=
EXTT15=
EXTT16=
EXTT17=
EXTT18=
EXTT19=
EXTT20=
EXTT21=
EXTT22=
EXTT23=
EXTT24=
EXTT25=
PLAYORDER=
